Coordinates
version=1
nRows=10
nColumns=40
inDegrees=yes

Units are S.I. units (second, meters, Newtons, ...)
If the header above contains a line with 'inDegrees', this indicates whether rotational values are in degrees (yes) or radians (no).

endheader
time	pelvis_tilt	pelvis_list	pelvis_rotation	pelvis_tx	pelvis_ty	pelvis_tz	hip_flexion_r	hip_adduction_r	hip_rotation_r	knee_angle_r	knee_angle_r_beta	ankle_angle_r	subtalar_angle_r	mtp_angle_r	hip_flexion_l	hip_adduction_l	hip_rotation_l	knee_angle_l	knee_angle_l_beta	ankle_angle_l	subtalar_angle_l	mtp_angle_l	lumbar_extension	lumbar_bending	lumbar_rotation	arm_flex_r	arm_add_r	arm_rot_r	elbow_flex_r	pro_sup_r	wrist_flex_r	wrist_dev_r	arm_flex_l	arm_add_l	arm_rot_l	elbow_flex_l	pro_sup_l	wrist_flex_l	wrist_dev_l
      1.93000000	      0.81608981	     -6.74844786	     89.77685884	      0.20773149	      0.97194300	     -0.19284689	     12.67306133	      4.75450843	     -2.95630907	     13.26136743	      0.23145453	      1.31983271	     -0.00000000	     -0.00000000	     27.38924039	     -4.65421632	     -5.92359712	     62.85014841	      1.09694203	     -6.40449827	      0.00000000	     -0.00000000	      2.33251164	      0.20914932	      2.96056870	     -0.00000000	      0.00000000	     -0.00000000	      0.00000000	      0.00000000	      0.00000000	      0.00000000	     -0.00000000	     -0.00000000	      0.00000000	      0.00000000	      0.00000000	     -0.00000000	      0.00000000
      1.94000000	      0.61779277	     -6.72502295	     89.77207510	      0.20808067	      0.97261508	     -0.20050386	     11.84050437	      4.59378874	     -2.82479993	     12.69708706	      0.22160597	      1.50717471	      0.00000000	      0.00000000	     28.11839369	     -4.50010051	     -6.14570568	     61.37899648	      1.07126558	     -5.19788739	      0.00000000	      0.00000000	      2.18794662	     -0.07168651	      3.13984549	      0.00000000	      0.00000000	      0.00000000	      0.00000000	      0.00000000	      0.00000000	      0.00000000	      0.00000000	      0.00000000	      0.00000000	      0.00000000	      0.00000000	      0.00000000	      0.00000000
      1.95000000	      0.43503348	     -6.72656941	     89.76820146	      0.20833525	      0.97313376	     -0.20817593	     11.03487115	      4.44493981	     -2.68667479	     12.13640542	      0.21182023	      1.69648633	      0.00000000	      0.00000000	     28.76674176	     -4.34541556	     -6.37755547	     59.59244304	      1.04008434	     -4.21222888	      0.00000000	      0.00000000	      2.08194488	     -0.33263157	      3.30656896	      0.00000000	      0.00000000	      0.00000000	      0.00000000	      0.00000000	      0.00000000	      0.00000000	      0.00000000	      0.00000000	      0.00000000	      0.00000000	      0.00000000	      0.00000000	      0.00000000
      1.96000000	      0.26441348	     -6.74964547	     89.76098758	      0.20855593	      0.97349703	     -0.21587540	     10.25162542	      4.30681936	     -2.53887982	     11.57737198	      0.20206326	      1.88963218	      0.00000000	      0.00000000	     29.33260231	     -4.20848337	     -6.64355513	     57.51707722	      1.00386237	     -3.38782567	      0.00000000	      0.00000000	      2.00315396	     -0.57580173	      3.45824270	      0.00000000	      0.00000000	      0.00000000	      0.00000000	      0.00000000	      0.00000000	      0.00000000	      0.00000000	      0.00000000	      0.00000000	      0.00000000	      0.00000000	      0.00000000	      0.00000000
      1.97000000	      0.11573749	     -6.78901391	     89.75020939	      0.20871180	      0.97370434	     -0.22361216	      9.49665114	      4.18609460	     -2.39594444	     11.04160898	      0.19271243	      2.09860880	      0.00000000	      0.00000000	     29.80865531	     -4.08166901	     -6.91465031	     55.15872271	      0.96270132	     -2.71841122	      0.00000000	      0.00000000	      1.94781252	     -0.79178103	      3.59429945	      0.00000000	      0.00000000	      0.00000000	      0.00000000	      0.00000000	      0.00000000	      0.00000000	      0.00000000	      0.00000000	      0.00000000	      0.00000000	      0.00000000	      0.00000000	      0.00000000
      1.98000000	     -0.00281087	     -6.94881745	     89.73662285	      0.20881237	      0.97358008	     -0.23131849	      8.89403853	      4.09536843	     -2.22400035	     10.55157650	      0.18415975	      2.32311953	     -0.00000000	      0.00000000	     30.32749229	     -3.98038729	     -7.20381799	     52.55924679	      0.91733191	     -2.20187225	     -0.00000000	      0.00000000	      2.03991174	     -0.96727204	      3.70638934	     -0.00000000	      0.00000000	     -0.00000000	      0.00000000	      0.00000000	     -0.00000000	      0.00000000	     -0.00000000	     -0.00000000	     -0.00000000	      0.00000000	      0.00000000	     -0.00000000	     -0.00000000
      1.99000000	     -0.08727275	     -6.83558334	     89.72051020	      0.20885552	      0.97372386	     -0.23922830	      7.94340955	      4.03419932	     -2.10842162	      9.97280239	      0.17405824	      2.51415616	     -0.00000000	      0.00000000	     30.40650750	     -3.92195185	     -7.57000639	     49.64980924	      0.86655264	     -1.96386574	      0.00000000	     -0.00000000	      1.81129821	     -1.10076016	      3.83525877	     -0.00000000	     -0.00000000	     -0.00000000	      0.00000000	      0.00000000	     -0.00000000	      0.00000000	     -0.00000000	      0.00000000	      0.00000000	      0.00000000	      0.00000000	     -0.00000000	     -0.00000000
      2.00000000	     -0.08721661	     -7.06353710	     89.70499971	      0.20884959	      0.97315551	     -0.24697598	      7.44386663	      4.05671725	     -1.99871535	      9.54410044	      0.16657598	      2.76256900	     -0.00000000	     -0.00000000	     30.83357141	     -3.93546293	     -7.90580209	     46.63520485	      0.81393787	     -1.70619289	     -0.00000000	     -0.00000000	      1.97576479	     -1.13824952	      3.94115170	     -0.00000000	      0.00000000	      0.00000000	      0.00000000	      0.00000000	      0.00000000	     -0.00000000	      0.00000000	      0.00000000	      0.00000000	      0.00000000	      0.00000000	      0.00000000	     -0.00000000
      2.01000000	     -0.19453061	     -7.06236388	     89.67600022	      0.20872132	      0.97287743	     -0.25495754	      6.64417386	      3.96402978	     -1.78897978	      9.04585610	      0.15787997	      2.99179840	      0.00000000	      0.00000000	     30.83477514	     -3.79967223	     -8.31837155	     43.26771562	      0.75516410	     -1.83240346	      0.00000000	      0.00000000	      1.90620646	     -1.28526877	      3.99978263	      0.00000000	      0.00000000	      0.00000000	      0.00000000	      0.00000000	      0.00000000	      0.00000000	      0.00000000	      0.00000000	      0.00000000	      0.00000000	      0.00000000	      0.00000000	      0.00000000
      2.02000000	     -0.20330309	     -7.10711519	     89.64851465	      0.20851082	      0.97232861	     -0.26298199	      5.91136366	      3.96586095	     -1.64210737	      8.58451060	      0.14982797	      3.23512836	      0.00000000	      0.00000000	     30.83626212	     -3.74454977	     -8.72161843	     39.80470815	      0.69472322	     -1.99453584	      0.00000000	      0.00000000	      1.87793872	     -1.30992505	      4.09386085	      0.00000000	      0.00000000	      0.00000000	      0.00000000	      0.00000000	      0.00000000	      0.00000000	      0.00000000	      0.00000000	      0.00000000	      0.00000000	      0.00000000	      0.00000000	      0.00000000
